<svg id="Vector_layer" data-name="Vector layer" xmlns="http://www.w3.org/2000/svg" viewBox="0 0 149.81 195.57"><defs><style>.cls-1{fill:#ef4c39;}</style></defs><path class="cls-1" d="M37.05,37.45A8,8,0,0,1,33.75,36a15.1,15.1,0,0,1-1.86-1.89c-.32-.37-.64-.75-.95-1.13a1.93,1.93,0,0,1-.49-1.33,1.86,1.86,0,0,1,3.23-1.18c.6.74,1.21,1.49,1.87,2.17.18.17.36.33.56.49l.18.11a6.36,6.36,0,0,0,.59.28c.31.11.63.21.94.3l.27,0h.2l.27,0a3.9,3.9,0,0,0,.46-.12h0l.12,0-.09,0,.06,0-.06,0-.14,0,.27-.11a2.82,2.82,0,0,0,.38-.21l-.2.12c.18-.12.35-.25.51-.38l-.18.15c.11-.09.21-.19.31-.29s.17-.2.26-.3.32-.48.47-.72.31-.64.45-1a14.69,14.69,0,0,0,.56-1.82,44.48,44.48,0,0,0,.73-4.72c.18-2.15.34-4.29.51-6.44l.27-3.41c.09-1,.21-2.07.28-3.11a2,2,0,0,1-.33-1.11,15.07,15.07,0,0,1,.12-1.64,2,2,0,0,1,0,.25,2.54,2.54,0,0,1,.63-1.6,1.87,1.87,0,0,1,3.28,1,12.4,12.4,0,0,1,.11,1.83c0,.55-.07,1.1-.11,1.64l-.15,1.8c-.09,1-.17,2-.25,3-.15,2-.29,4-.46,5.95a40.15,40.15,0,0,1-1.44,9,11.39,11.39,0,0,1-1.6,3.17,6.53,6.53,0,0,1-2.8,2.27,6.39,6.39,0,0,1-2.26.44A5.44,5.44,0,0,1,37.05,37.45Z" transform="translate(-30.45 -3.26)"/><path class="cls-1" d="M32.47,10.71a1.89,1.89,0,0,1,.45-2.59,5.93,5.93,0,0,1,1.67-.73l1.64-.55c.87-.28,1.77-.52,2.65-.77,1.49-.42,3-.81,4.54-1.13l3.18-.68c.85-.18,1.71-.31,2.56-.46a40.58,40.58,0,0,1,5.05-.53A1.86,1.86,0,1,1,54.57,7c-1.48.08-3,.24-4.42.42-2,.37-4.09.73-6.12,1.22l-3.48.85c-.94.23-1.88.53-2.82.8s-1.83.57-2.72.94l-.06,0a1.73,1.73,0,0,1-.93.27A1.91,1.91,0,0,1,32.47,10.71Z" transform="translate(-30.45 -3.26)"/><path class="cls-1" d="M58.47,35a4.84,4.84,0,0,1-2.16-.82,4.69,4.69,0,0,1-1.46-1.84A3.9,3.9,0,0,1,54.57,30a11.75,11.75,0,0,1,1-2.94,13.35,13.35,0,0,1,3.62-4.55,9.41,9.41,0,0,1,2.25-1.37,6,6,0,0,1,1.32-.34A2.94,2.94,0,0,1,64,21a1.94,1.94,0,0,1,1,.79,2,2,0,0,1,.62.16,9.08,9.08,0,0,1,1.83,1.08A5.08,5.08,0,0,1,69,25.1a4.81,4.81,0,0,1,.35,2.49,6.51,6.51,0,0,1-1,2.67,8.39,8.39,0,0,1-1.81,1.95,13.12,13.12,0,0,1-2.66,1.68A10.27,10.27,0,0,1,59.47,35,6.73,6.73,0,0,1,58.47,35Zm1.16-3.65.55-.05.46-.11c.52-.17,1-.36,1.53-.58s.7-.36,1-.56.61-.42.91-.65l.56-.5c.15-.16.29-.32.43-.49s.16-.24.23-.36l.18-.37c0-.08,0-.16.07-.24a1.57,1.57,0,0,0,0-.23v-.27c0-.05,0-.1,0-.15l0-.09s0-.07,0-.11l-.13-.23a.57.57,0,0,1,.08.13v0l-.19-.27a1.8,1.8,0,0,0-.19-.2L65,25.83l-.22-.14c-.24-.13-.48-.24-.73-.35A2,2,0,0,1,63.5,25a3.83,3.83,0,0,1-1.12,0h0a1,1,0,0,1-.24,0q-.32.21-.63.45c-.28.23-.55.47-.81.73l.16-.17c-.33.35-.65.71-1,1.09a15.75,15.75,0,0,0-.89,1.4c-.13.25-.25.51-.37.77s-.23.68-.32,1c0,.13-.06.26-.08.4l0-.25c0,.12,0,.24,0,.36l0,0,.06.11.08.12.09.1,0,0,0,0-.21-.12.24.13.19.06.26,0A6.08,6.08,0,0,0,59.63,31.32Z" transform="translate(-30.45 -3.26)"/><path class="cls-1" d="M78.88,32.19a1.89,1.89,0,0,1-1.79-1.93c.13-1.87.35-3.73.56-5.59s.56-3.69.78-5.55a1.77,1.77,0,0,0,0-.23,1.86,1.86,0,0,1,3.72.13,20.9,20.9,0,0,1-.32,2.61c-.07.51-.15,1-.22,1.54-.19,1.33-.36,2.64-.52,4-.1,1.08-.22,2.17-.29,3.26A1.89,1.89,0,0,1,79,32.19Z" transform="translate(-30.45 -3.26)"/><path class="cls-1" d="M79,13.82a1.86,1.86,0,1,1,1.79,1.93A1.88,1.88,0,0,1,79,13.82Z" transform="translate(-30.45 -3.26)"/><path class="cls-1" d="M93.56,31.42A1.87,1.87,0,0,1,91.82,30a10.33,10.33,0,0,1-.12-2.29c0-.57,0-1.14,0-1.72,0-1.17.06-2.35.1-3.53.07-2.32.36-4.64.46-7a1.86,1.86,0,0,1,3.72.13v.09a1.94,1.94,0,0,1,0,.24c0,.28,0,.57,0,.86a14.69,14.69,0,0,1,1.3-1.44c.13-.13.28-.26.42-.38a4.35,4.35,0,0,1,.63-.52l.45-.28a3.13,3.13,0,0,1,.69-.24,2.48,2.48,0,0,1,1,0,2.6,2.6,0,0,1,1.15.54,6.13,6.13,0,0,1,1.56,2.08,14.15,14.15,0,0,1,1.27,4.84c.17,1.43.35,2.87.57,4.3.14.76.28,1.52.44,2.27a1.86,1.86,0,0,1-3.63.84c-.26-1.28-.49-2.56-.68-3.84s-.32-2.68-.51-4c-.1-.57-.23-1.14-.38-1.7-.09-.28-.19-.54-.3-.82l-.15-.3-.33.32c-.21.24-.42.48-.62.74A12.15,12.15,0,0,0,98,20.33a16.44,16.44,0,0,0-.72,1.53,22.32,22.32,0,0,0-.73,2.37v0c-.24,1.06-.41,2.12-.58,3.2a9,9,0,0,1-.69,3,1.91,1.91,0,0,1-1.68,1.07Z" transform="translate(-30.45 -3.26)"/><path class="cls-1" d="M129.65,26.9a3.57,3.57,0,0,1-.83-1.17A4.14,4.14,0,0,1,128.5,24a9.23,9.23,0,0,1,.25-2c.16-.77.36-1.52.57-2.27.27-1,.59-1.93.91-2.88.22-.65.45-1.3.67-2s.44-1.22.65-1.84a2,2,0,0,1,.07-.64,3.6,3.6,0,0,1,.47-1,1.85,1.85,0,0,1,3.39,1.32,22.84,22.84,0,0,1-.95,3c-.25.75-.5,1.49-.76,2.23-.45,1.32-.87,2.66-1.21,4-.13.54-.25,1.09-.33,1.64,0,.15,0,.3,0,.45h.14l.49-.05a6,6,0,0,0,.61-.15q.67-.21,1.32-.48a1.86,1.86,0,1,1,1.3,3.48,10.13,10.13,0,0,1-3.74.91A3.94,3.94,0,0,1,129.65,26.9Z" transform="translate(-30.45 -3.26)"/><path class="cls-1" d="M127,20.6a1.92,1.92,0,0,1,.18-1.68,3.29,3.29,0,0,1,1.73-1.13c.73-.26,1.47-.48,2.21-.7a34.74,34.74,0,0,1,4.39-1,1.86,1.86,0,0,1,1.6,3.05,2,2,0,0,1-1.24.65l-.09,0a20,20,0,0,0-2.18.42c-.78.21-1.54.42-2.31.65-.46.16-.93.31-1.39.49a1.83,1.83,0,0,1-.51.29,1.71,1.71,0,0,1-.63.11A1.83,1.83,0,0,1,127,20.6Z" transform="translate(-30.45 -3.26)"/><path class="cls-1" d="M141.93,25.94a2.89,2.89,0,0,1-.6-1.32,8.92,8.92,0,0,1,0-1.79c0-.73.12-1.46.18-2.19.1-1,.24-2.06.36-3.09.24-1.91.47-3.83.71-5.74a1.85,1.85,0,0,1,1.9-1.54,1.89,1.89,0,0,1,1.79,1.92,1.58,1.58,0,0,1-.05.38c-.23,1.92-.47,3.84-.7,5.76a10.44,10.44,0,0,1,.88-.88,3.92,3.92,0,0,1,1.59-.83,2.37,2.37,0,0,1,1.79.38,4.19,4.19,0,0,1,1.53,3.08v0l0,.16v0c.13.74.27,1.48.43,2.22.14.42.28.84.45,1.25a1.86,1.86,0,0,1-3.48,1.3,13.57,13.57,0,0,1-.69-2.16q-.15-.69-.27-1.38l-.2.34c-.32.59-.61,1.19-.9,1.8a15.4,15.4,0,0,1-.93,1.69,3.64,3.64,0,0,1-1.22,1.09,2,2,0,0,1-1.09.32A1.83,1.83,0,0,1,141.93,25.94Z" transform="translate(-30.45 -3.26)"/><path class="cls-1" d="M158.81,26.74a7.09,7.09,0,0,1-2.91-1.36,5.38,5.38,0,0,1-1.88-3.1,7.37,7.37,0,0,1,.2-3.52,10.84,10.84,0,0,1,1.7-3.5,10.06,10.06,0,0,1,6.13-4.09,6.46,6.46,0,0,1,1.7-.1,3.75,3.75,0,0,1,1.51.39,3.82,3.82,0,0,1,1.18.9,2.68,2.68,0,0,1,.65,1.49,3.53,3.53,0,0,1-.13,1.41,7.49,7.49,0,0,1-.63,1.38,9.74,9.74,0,0,1-2.45,2.74,3.7,3.7,0,0,1-1.39.72,4.46,4.46,0,0,1-1.21.07c-.45,0-.91-.06-1.36-.1-.73-.07-1.45-.1-2.17-.11a.74.74,0,0,0,0,.14,5.16,5.16,0,0,0-.09.52,2.11,2.11,0,0,1,0-.25,5.09,5.09,0,0,0,0,.55,5.51,5.51,0,0,0,.06.57,1.55,1.55,0,0,0,.05.23c0,.05,0,.1,0,.14l.1.18a1.91,1.91,0,0,0,.15.21l.19.21.17.15.18.11.43.2.61.19.38.06a8.43,8.43,0,0,0,.87,0,11.74,11.74,0,0,0,1.33-.13c.6-.12,1.19-.27,1.78-.43a30.09,30.09,0,0,0,2.92-1.09l.81-.41a1.86,1.86,0,0,1,1.73,3.29,27.76,27.76,0,0,1-3,1.29,18.13,18.13,0,0,1-3.75,1,12.42,12.42,0,0,1-2,.17A8.89,8.89,0,0,1,158.81,26.74Zm2.78-10.28.07-.06c.22-.18.42-.37.62-.56l.51-.59.32-.48-.24,0a4.19,4.19,0,0,0-.51.11,6.18,6.18,0,0,0-.72.26l-.63.32-.68.47-.43.38C160.46,16.39,161,16.44,161.59,16.46Z" transform="translate(-30.45 -3.26)"/><path class="cls-1" d="M51.46,84.45A49.56,49.56,0,0,1,46,82.92a1.86,1.86,0,0,1,1.13-3.54c1.43.49,2.89.89,4.36,1.26a28.58,28.58,0,0,0,3,.58c.58,0,1.16.07,1.74.07l.77-.07.64-.16a2.74,2.74,0,0,0,.4-.15l.18-.09.11-.08.1-.08a1.84,1.84,0,0,0,.17-.22l0,0,0,0a.36.36,0,0,0,.07-.1l-.06.09,0,0,0,0-.08.11.14-.22.09-.2v0l0,.08a1.54,1.54,0,0,0,0-.17,3.43,3.43,0,0,0,.06-.34c0-.13,0-.26,0-.39s0-.49-.07-.73-.14-.64-.22-1-.22-.6-.34-.89-.32-.61-.49-.91-.37-.53-.56-.78-.53-.59-.81-.88-.68-.6-1-.89a19.23,19.23,0,0,0-1.71-1.11c-1.63-.89-3.35-1.62-5-2.45a6.81,6.81,0,0,1-3.45-3.34A4.19,4.19,0,0,1,45.16,64a5.93,5.93,0,0,1,1.11-2.25,24.59,24.59,0,0,1,4.28-4.25,42.6,42.6,0,0,1,4.92-3.4A26,26,0,0,1,58,52.75c.38-.15.75-.29,1.13-.42A4.47,4.47,0,0,1,60.34,52a2.42,2.42,0,0,1,2,.63A2.26,2.26,0,0,1,63,54.56c-.2,1.15-1.37,1.8-2.28,2.38a1.93,1.93,0,0,1-2.38-.2c-.57.3-1.14.63-1.69,1l.2-.13a43.43,43.43,0,0,0-4,2.85c-.78.64-1.53,1.31-2.25,2a21.09,21.09,0,0,0-1.38,1.62l-.23.36c0,.07-.07.15-.1.23v0a.78.78,0,0,0-.05.14.61.61,0,0,1,.05-.12v0a.69.69,0,0,1,0-.1,2,2,0,0,0-.07.23l0,.19v.15l.08.12.19.2a6.4,6.4,0,0,0,.49.42c.12.09.25.17.38.25,1.6.86,3.3,1.55,4.92,2.39a17.64,17.64,0,0,1,4.78,3.53,11.77,11.77,0,0,1,2.71,4.88,6.84,6.84,0,0,1-.42,5.36A4.91,4.91,0,0,1,60.15,84a7.37,7.37,0,0,1-2.63.88,12.75,12.75,0,0,1-1.63.11A21.32,21.32,0,0,1,51.46,84.45Z" transform="translate(-30.45 -3.26)"/><path class="cls-1" d="M80.86,81a2.51,2.51,0,0,1-.9-1.67,15.15,15.15,0,0,1,0-1.65c0-.81,0-1.63.06-2.44.06-1.76.14-3.52.21-5.28.15-3.29.28-6.59.22-9.89a1.88,1.88,0,0,1-.3-1.07,5.87,5.87,0,0,1,.18-1.1,1.86,1.86,0,0,1,1.84-1.29A1.89,1.89,0,0,1,84,58.07a13,13,0,0,1,.26,3.78l0,3.08c0,1.57-.11,3.13-.17,4.7s-.14,2.93-.19,4.4l-.06,1.76.22.08a1.9,1.9,0,0,1,.89,2.48,15,15,0,0,1-1.25,2.25,2,2,0,0,1-1.6.85A1.73,1.73,0,0,1,80.86,81Z" transform="translate(-30.45 -3.26)"/><path class="cls-1" d="M94.73,79.52a3.85,3.85,0,0,1-1.41-2,4.43,4.43,0,0,1-.07-2.67,15,15,0,0,1,1.17-3.05,13.78,13.78,0,0,1,3.79-4.65,6.77,6.77,0,0,1,2.52-1.28,5.29,5.29,0,0,1,1.31-.17,3.78,3.78,0,0,1,1.25.17A3.31,3.31,0,0,1,105,67.1a1.84,1.84,0,0,1,1.13-.53,1.88,1.88,0,0,1,1.82,1,4.26,4.26,0,0,1,.36,2.37c0,.57.07,1.13.15,1.69s.2.93.33,1.39.25.72.4,1.08.27.54.42.81a7.75,7.75,0,0,0,.46.66,5.44,5.44,0,0,0,.41.42l-.17-.17a3.74,3.74,0,0,0,.31.27l.21.14.54.25a1.86,1.86,0,0,1-1.59,3.36,8.27,8.27,0,0,1-1.18-.62,7.66,7.66,0,0,1-1.1-1,8.77,8.77,0,0,1-1.68-2.61,13.91,13.91,0,0,1-.57-1.52,21.27,21.27,0,0,1-3,3.43,13.83,13.83,0,0,1-2.46,1.77,5.71,5.71,0,0,1-2.62.75h-.3A3.91,3.91,0,0,1,94.73,79.52Zm2.21-3.16c.12,0,.24,0,.36,0l.17,0a4.4,4.4,0,0,0,.5-.21l-.22.1.41-.22c.4-.26.79-.54,1.17-.83s.66-.59,1-.9a20.24,20.24,0,0,0,1.42-1.65c.49-.68,1-1.37,1.37-2.09a2.06,2.06,0,0,1-.46-.15,1.88,1.88,0,0,1-.87-.87l-.19,0-.22.09-.55.28-.58.43q-.37.31-.72.66c-.24.27-.47.54-.7.83a16.5,16.5,0,0,0-.93,1.42c-.22.42-.42.84-.6,1.28s-.32.87-.44,1.32a1.42,1.42,0,0,0,0,.2v.17a.29.29,0,0,0,0,.09l0,.08Z" transform="translate(-30.45 -3.26)"/><path class="cls-1" d="M124.21,78.59a4.63,4.63,0,0,1-1.91-1.36c-1.19-1.33-1.12-3.39-.86-5a18.25,18.25,0,0,1,5.2-10.29,8.11,8.11,0,0,1,2.22-1.54,2.66,2.66,0,0,1,2.19-.12,2.2,2.2,0,0,1,1.22,1.44,2.56,2.56,0,0,1-.25,1.58,1.88,1.88,0,0,1-2.36.93l0,0c-.29.24-.56.49-.82.75a14,14,0,0,0-1,1.18,14.84,14.84,0,0,0-.93,1.45,19.81,19.81,0,0,0-.84,1.81,20.1,20.1,0,0,0-.69,2.16,17.94,17.94,0,0,0-.32,1.78c0,.21,0,.42,0,.62s0,.42.07.63l0,.12,0,.07h0v0l.08.09.11.09a.41.41,0,0,1,.11.07l.08,0,.06,0,.17,0c.22,0,.43,0,.65,0s.48,0,.72-.06c.5-.11,1-.24,1.49-.37,1.1-.35,2.19-.74,3.29-1.1.88-.28,1.77-.54,2.66-.79a1.86,1.86,0,1,1,.84,3.62l-2.07.61-1.95.65a17.18,17.18,0,0,1-4.71,1.15h-.48A6,6,0,0,1,124.21,78.59Z" transform="translate(-30.45 -3.26)"/><path class="cls-1" d="M145.52,75.44a2.41,2.41,0,0,1-1-1.27,7.8,7.8,0,0,1-.23-1.81c0-.67-.1-1.34-.13-2-.06-1.61-.1-3.21-.11-4.82,0-1.38,0-2.75,0-4.12,0-1.53,0-3,.06-4.58a1.85,1.85,0,0,1,3.66-.35,1.51,1.51,0,0,1,0,.28,1.63,1.63,0,0,1,0,.54c-.07,1.64,0,3.29-.05,4.93,0,1.87,0,3.75,0,5.62.06,1.68.11,3.37.28,5a1.84,1.84,0,0,1,0,2,1.92,1.92,0,0,1-1.59.86A1.72,1.72,0,0,1,145.52,75.44Z" transform="translate(-30.45 -3.26)"/><path class="cls-1" d="M145.86,68.58a1.88,1.88,0,0,1-.22-2.62A50.92,50.92,0,0,1,150,61.58c1.7-1.59,3.37-3.21,5.16-4.7a1.86,1.86,0,1,1,2.51,2.74c-1.52,1.27-3,2.64-4.4,4s-2.72,2.59-4,3.93c-.24.27-.47.54-.7.82a1.88,1.88,0,0,1-2.62.22Z" transform="translate(-30.45 -3.26)"/><path class="cls-1" d="M156.59,74.08c-.91-1-1.83-1.91-2.77-2.83l-1.33-1.13c-.42-.36-.87-.68-1.31-1a15.93,15.93,0,0,1-2.26-2,4.52,4.52,0,0,1-1.37-2.84,1.85,1.85,0,0,1,3.66-.35V64l0,.05.06.11.22.31c.19.21.38.42.58.62.79.71,1.65,1.34,2.5,2,.55.41,1.06.88,1.58,1.32s1,1,1.48,1.44,1.11,1.17,1.67,1.76a1.87,1.87,0,0,1-.12,2.62,1.8,1.8,0,0,1-1.24.48A1.89,1.89,0,0,1,156.59,74.08Z" transform="translate(-30.45 -3.26)"/><path class="cls-1" d="M173.45,66.42a2.2,2.2,0,0,1-1.27-1,2.27,2.27,0,0,1-.14-1.68c.57-2.3,1.3-4.55,2-6.84.36-1.26.71-2.52,1-3.79.15-.54.29-1.08.43-1.61a9.44,9.44,0,0,1,.8-2.33,2.18,2.18,0,0,1,4,1.26v0a2,2,0,0,1-.29,1c-.18.56-.31,1.14-.47,1.7s-.29,1.1-.43,1.65c-.3,1.16-.63,2.31-1,3.46-.64,2.26-1.37,4.49-1.94,6.78a2.12,2.12,0,0,1-2.09,1.5A1.89,1.89,0,0,1,173.45,66.42Z" transform="translate(-30.45 -3.26)"/><path class="cls-1" d="M169.31,76.54A2.84,2.84,0,0,1,168,72.7a4.59,4.59,0,0,1,2.84-2.61,2.41,2.41,0,0,1,2.08.51,2.31,2.31,0,0,1,.8,1.82,1.7,1.7,0,0,1-.08.55,2.16,2.16,0,0,1-.5,2.51,4.44,4.44,0,0,1-2.79,1.29A2.63,2.63,0,0,1,169.31,76.54Z" transform="translate(-30.45 -3.26)"/><path class="cls-1" d="M48.37,185.91a2.17,2.17,0,0,1,.06-4.34c1.77-.34,3.55-.69,5.32-1.08.93-.21,1.85-.46,2.77-.69a33.46,33.46,0,0,1,5.71-1c2.16-.15,4.31-.31,6.47-.51,1.91-.19,3.82-.48,5.72-.76a185.23,185.23,0,0,0,18.78-4.36c4-1.3,8-2.74,12-4.35.71-.33,1.41-.65,2.1-1s1.56-.83,2.33-1.27a34.47,34.47,0,0,0,3-2.07c.72-.6,1.39-1.24,2.06-1.89s1.34-1.47,1.95-2.26a21.6,21.6,0,0,0,1.25-1.91c.25-.49.49-1,.7-1.48.27-.71.49-1.43.69-2.16s.3-1.53.4-2.31a21.24,21.24,0,0,0,.09-2.26,26.26,26.26,0,0,0-.27-2.8c-.17-1-.38-1.9-.64-2.84-.18-.54-.37-1.07-.59-1.6a13.35,13.35,0,0,0-.63-1.18q-.36-.56-.75-1.08c-.57-.69-1.18-1.33-1.81-2l.14.14-.19-.18,0,0,0,0-.61-.59.2.19c-.8-.76-1.6-1.53-2.39-2.31s-1.63-1.67-2.46-2.49-1.59-1.4-2.43-2.05c-1.89-1.37-3.74-2.77-5.53-4.27A28.36,28.36,0,0,1,98,123.52a18.77,18.77,0,0,1-3.71-8.21A21.7,21.7,0,0,1,94,110c.06-1.28.15-2.54.26-3.81a44.73,44.73,0,0,1,1.26-7c.14-.58.29-1.15.44-1.73a2.24,2.24,0,0,1,.22-1.34.56.56,0,0,0,0,.08c0-.1.1-.19.14-.29a2.32,2.32,0,0,1,1-1,2.17,2.17,0,0,1,2.19.09,2.25,2.25,0,0,1,1,2.2,26.84,26.84,0,0,1-.76,3.28c-.22,1-.43,1.91-.61,2.87s-.32,2-.45,3a53.93,53.93,0,0,0-.29,6,17.6,17.6,0,0,0,.16,1.9q.15.78.36,1.56c.26.79.54,1.58.88,2.35.23.5.49,1,.77,1.47s.52.78.8,1.15.79.9,1.21,1.32a68,68,0,0,0,5.87,4.85,37.4,37.4,0,0,1,4.83,4c.91.94,1.83,1.86,2.76,2.79l1.73,1.66,0,0a27.19,27.19,0,0,1,2.9,3.17,14.88,14.88,0,0,1,2.09,4,23.29,23.29,0,0,1,1.06,4.28,25,25,0,0,1,.34,4.73A20.61,20.61,0,0,1,122,160a24.21,24.21,0,0,1-4,5.41,30,30,0,0,1-7.6,5.67A46.76,46.76,0,0,1,104,174c-2.27.86-4.57,1.69-6.87,2.49s-4.47,1.4-6.73,2c-4.46,1.19-9,2.25-13.54,3-2.43.43-4.88.82-7.34,1.06-1.3.13-2.61.25-3.92.35-1.65.12-3.31.2-4.95.43-2.27.39-4.47,1.05-6.71,1.55-.89.2-1.78.37-2.67.54l-1.25.25a8.14,8.14,0,0,1-1.48.23Z" transform="translate(-30.45 -3.26)"/><path class="cls-1" d="M45.24,183.59a2.27,2.27,0,0,1,.49-1.6c.49-.71.88-1.5,1.3-2.24s.94-1.59,1.43-2.38c.82-1.32,1.75-2.58,2.67-3.84,2-2.8,4.06-5.62,6.21-8.34a2.17,2.17,0,0,1,3.32,2.8c-.93,1.18-1.84,2.39-2.74,3.59l.17-.22c-1.59,2.17-3.23,4.31-4.75,6.53-.79,1.15-1.57,2.31-2.26,3.52-.38.67-.76,1.33-1.13,2-.53.93-1.14,2.07-2.34,2.13h-.12A2.19,2.19,0,0,1,45.24,183.59Z" transform="translate(-30.45 -3.26)"/><path class="cls-1" d="M60.74,198.34l-.67-.54c-1.16-.86-2.33-1.68-3.46-2.56s-2.34-1.91-3.46-2.93S51,190.15,50,189q-1-1-1.92-2.13a23.52,23.52,0,0,1-2.6-3.68l0,0a2.38,2.38,0,0,1-.28-1.12h0a2.17,2.17,0,0,1,1.15-1.84,2.2,2.2,0,0,1,2.42.26,4,4,0,0,1,.75,1l.35.58c.31.46.63.91,1,1.35,1.57,1.87,3.26,3.64,5,5.39,1.59,1.45,3.26,2.81,5,4.12.4.29.8.58,1.21.86s1,.77,1.52,1.16a2.19,2.19,0,0,1,.25,3.06,2.09,2.09,0,0,1-1.63.75A2.34,2.34,0,0,1,60.74,198.34Z" transform="translate(-30.45 -3.26)"/></svg>